<svg width="9" height="14" viewBox="0 0 9 14" fill="none" xmlns="http://www.w3.org/2000/svg">
<path fill-rule="evenodd" clip-rule="evenodd" d="M8.01533 6.79664C8.28119 6.13927 7.79738 5.4217 7.08828 5.4217H6.90475C6.35246 5.4217 5.90474 4.97398 5.90474 4.4217V3.31181C5.90474 2.72948 6.38261 2.78434 6.97141 2.78434H7.03808C7.59036 2.78434 8.03808 2.33662 8.03808 1.78434V1.14697C8.03808 0.594688 7.59036 0.146973 7.03808 0.146973H5.90474C5.05605 0.146973 4.24212 0.48041 3.642 1.07393C3.04189 1.66745 2.70474 2.47244 2.70474 3.31181V4.4217C2.70474 4.97398 2.25703 5.4217 1.70474 5.4217H1.57141C1.01913 5.4217 0.571411 5.86941 0.571411 6.4217V7.05906C0.571411 7.61134 1.01913 8.05906 1.57141 8.05906H1.70475C2.25703 8.05906 2.70474 8.50678 2.70474 9.05906V12.8613C2.70474 13.4135 3.15246 13.8613 3.70474 13.8613H4.90474C5.45703 13.8613 5.90474 13.4135 5.90474 12.8613V9.01471C5.90474 8.48692 6.33261 8.05906 6.8604 8.05906C7.24984 8.05906 7.60032 7.82275 7.74634 7.46172L8.01533 6.79664Z" fill="#9893A3"/>
</svg>
