<svg width="13" height="12" viewBox="0 0 13 12" fill="none" xmlns="http://www.w3.org/2000/svg">
<path d="M3.07161 4.07869H0.468042V11.7032H3.07161V4.07869Z" fill="#9893A3"/>
<path d="M2.6339 0.520479C2.38577 0.370229 2.09416 0.290044 1.79586 0.290039C1.59682 0.290036 1.39975 0.325745 1.21597 0.395113C1.03219 0.46448 0.865338 0.566138 0.725001 0.694239C0.584664 0.822339 0.473615 0.974356 0.398239 1.14155C0.322863 1.30874 0.284648 1.4878 0.285792 1.66844C0.287506 1.93917 0.377525 2.20337 0.544493 2.42771C0.71146 2.65206 0.947896 2.82649 1.22397 2.92902C1.50005 3.03154 1.8034 3.05756 2.09575 3.0038C2.3881 2.95003 2.65636 2.81888 2.86667 2.6269C3.07699 2.43492 3.21996 2.1907 3.27752 1.92506C3.33509 1.65942 3.30468 1.38426 3.19014 1.13429C3.07559 0.884314 2.88204 0.67073 2.6339 0.520479Z" fill="#9893A3"/>
<path d="M7.25084 4.0783H4.74273L4.73405 11.7186H7.33762V7.94571C7.33762 6.95326 7.54591 5.99232 8.89977 5.99232C10.2536 5.99232 10.2536 7.13442 10.2536 8.0166V11.7029H12.8572V7.52038C12.8572 5.46458 12.3278 3.88926 9.72423 3.88926C9.22801 3.87164 8.73582 3.97663 8.30021 4.19304C7.8646 4.40944 7.5019 4.72914 7.25084 5.11801V4.0783Z" fill="#9893A3"/>
</svg>
