<svg width="17" height="14" viewBox="0 0 17 14" fill="none" xmlns="http://www.w3.org/2000/svg">
<path d="M16.2415 2.19405C15.8094 2.83671 15.2794 3.38454 14.6513 3.83754C14.6575 3.95904 14.6606 4.09636 14.6606 4.2495C14.6606 5.10041 14.5365 5.95235 14.2884 6.80531C14.0403 7.65829 13.6613 8.47473 13.1514 9.25465C12.6415 10.0346 12.0342 10.7255 11.3293 11.3275C10.6245 11.9294 9.77723 12.4094 8.78757 12.7674C7.7979 13.1254 6.73724 13.3043 5.6056 13.3043C3.83947 13.3043 2.21305 12.8276 0.726318 11.874C0.990195 11.9033 1.24327 11.918 1.48556 11.918C2.96101 11.918 4.27883 11.4636 5.43901 10.5547C4.75107 10.542 4.13497 10.3303 3.5907 9.91934C3.04644 9.50842 2.67189 8.98334 2.46705 8.3441C2.66952 8.38266 2.86935 8.40194 3.06654 8.40194C3.35038 8.40194 3.62967 8.36492 3.90442 8.29088C3.17026 8.14385 2.56121 7.77819 2.07728 7.19391C1.59336 6.60963 1.3514 5.93527 1.3514 5.17081V5.13141C1.80203 5.38092 2.2827 5.51364 2.7934 5.52957C2.35849 5.23963 2.01367 4.86154 1.75895 4.3953C1.5042 3.92906 1.37683 3.4245 1.37683 2.88163C1.37683 2.30909 1.5203 1.77594 1.80724 1.28219C2.60563 2.26194 3.57304 3.04498 4.70947 3.63132C5.84593 4.21767 7.06512 4.54331 8.36706 4.60824C8.31153 4.37682 8.28372 4.13532 8.28362 3.88375C8.28362 3.00534 8.59447 2.25531 9.21618 1.63365C9.83789 1.012 10.5879 0.701172 11.4664 0.701172C12.386 0.701172 13.1607 1.03604 13.7903 1.70578C14.5097 1.56329 15.1832 1.30556 15.811 0.932591C15.5691 1.69374 15.1031 2.28091 14.4129 2.69411C15.0473 2.61873 15.6568 2.45204 16.2414 2.19405H16.2415Z" fill="#9893A3"/>
</svg>
